<?xml version="1.0" encoding="iso-8859-1"?>
<!-- Generator: Adobe Illustrator 19.0.0, SVG Export Plug-In . SVG Version: 6.00 Build 0)  -->
<svg version="1.1" id="Capa_1" xmlns="http://www.w3.org/2000/svg" xmlns:xlink="http://www.w3.org/1999/xlink" x="0px" y="0px"
	 viewBox="0 0 512 512" style="enable-background:new 0 0 512 512;" xml:space="preserve">
<path style="fill:#D5D6E3;" d="M119.662,174.965v290.317c0,21.659,17.558,39.218,39.218,39.218h274.609
	c21.659,0,39.218-17.558,39.218-39.218V174.965H119.662z"/>
<path style="fill:#ABACBC;" d="M472.707,174.965H119.662v290.317c0,2.972,0.341,5.862,0.968,8.644h231.193
	c22.495,0,44.423-7.683,61.745-21.633c26.456-21.306,45.502-47.271,59.139-74.724V174.965z"/>
<path style="fill:#EAEAF1;" d="M472.707,174.965l-184.259-61.111l-184.259,61.111c0,0,22.683,153.411-62.77,240.216
	c-10.505,10.671-2.815,28.746,12.16,28.746h298.244c15.593,0,30.784-5.217,42.928-14.998
	C497.966,345.807,472.707,174.965,472.707,174.965z"/>
<path style="fill:#FD6064;" d="M288.448,242.876c-82.993-81.109-219.889,47.798-10.977,164.028c6.82,3.794,15.134,3.794,21.954,0
	C508.337,290.674,371.441,161.766,288.448,242.876z"/>
<path style="fill:#F0484A;" d="M245.931,219.129c-75.537-16.262-143.808,90.218,31.54,187.774c3.549,1.974,7.501,2.912,11.438,2.831
	C158.775,322.526,188.841,232.359,245.931,219.129z"/>
<path style="fill:#FD6064;" d="M434.482,52.743H142.414c-21.111,0-38.225,17.114-38.225,38.225v83.998h368.518V90.967
	C472.707,69.856,455.593,52.743,434.482,52.743z"/>
<path style="fill:#F0484A;" d="M183.894,127.985c28.066,0,50.9-22.834,50.9-50.9V52.742h-92.381c-3.251,0-6.406,0.409-9.42,1.173
	v23.169C132.994,105.151,155.827,127.985,183.894,127.985z"/>
<path style="fill:#ABACBC;" d="M183.894,97.985c-11.543,0-20.9-9.357-20.9-20.9V28.4c0-11.543,9.357-20.9,20.9-20.9
	s20.9,9.357,20.9,20.9v48.684C204.794,88.628,195.437,97.985,183.894,97.985z"/>
<path style="fill:#F0484A;" d="M393.002,127.985c28.066,0,50.9-22.834,50.9-50.9v-23.17c-3.014-0.764-6.169-1.173-9.42-1.173
	h-92.381v24.342C342.101,105.151,364.935,127.985,393.002,127.985z"/>
<path style="fill:#ABACBC;" d="M393.002,97.985c11.543,0,20.9-9.357,20.9-20.9V28.4c0-11.543-9.357-20.9-20.9-20.9
	s-20.9,9.357-20.9,20.9v48.684C372.102,88.628,381.459,97.985,393.002,97.985z"/>
<path d="M379.367,233.936c3.499,2.217,8.133,1.178,10.35-2.321s1.177-8.133-2.321-10.35c-24.772-15.694-63.882-17.718-97.69,11.44
	c-25.131-21.503-57.029-28.388-84.741-17.892c-25.139,9.52-41.952,31.827-43.877,58.214c-1.58,21.648,6.601,45.043,23.657,67.656
	c19.412,25.735,49.809,50.219,90.348,72.773c4.511,2.51,9.567,3.765,14.624,3.765c5.056,0,10.114-1.255,14.623-3.764
	c77.862-43.319,103.365-85.31,111.048-112.906c5.66-20.328,3.705-39.712-5.654-56.056c-2.059-3.595-6.642-4.84-10.235-2.782
	c-3.595,2.059-4.84,6.641-2.782,10.235c7.321,12.786,8.781,28.202,4.221,44.58c-6.917,24.843-30.555,63.021-103.892,103.822
	c-4.521,2.517-10.139,2.516-14.661,0c-100.222-55.759-107.752-106.852-106.338-126.23c1.519-20.81,14.315-37.736,34.23-45.278
	c24.526-9.29,52.265-2.037,74.198,19.398c2.915,2.849,7.569,2.849,10.484,0C324.025,219.832,358.297,220.587,379.367,233.936z"/>
<path d="M237.888,308.995v8.022c0,4.142,3.358,7.5,7.5,7.5s7.5-3.358,7.5-7.5v-8.022c0-4.142-3.358-7.5-7.5-7.5
	S237.888,304.853,237.888,308.995z"/>
<path d="M326.543,308.995v8.022c0,4.142,3.358,7.5,7.5,7.5s7.5-3.358,7.5-7.5v-8.022c0-4.142-3.358-7.5-7.5-7.5
	S326.543,304.853,326.543,308.995z"/>
<path d="M295.01,311.523c-1.265,1.447-3.194,2.276-5.294,2.276s-4.029-0.83-5.293-2.276c-2.727-3.12-7.465-3.438-10.583-0.711
	c-3.119,2.726-3.438,7.464-0.711,10.583c4.113,4.706,10.159,7.405,16.587,7.405s12.474-2.699,16.587-7.404
	c2.726-3.119,2.408-7.856-0.71-10.583C302.474,308.086,297.735,308.404,295.01,311.523z"/>
<path d="M481.475,90.967c0-25.212-20.512-45.725-45.725-45.725h-13.08V28.4c0-15.66-12.74-28.4-28.4-28.4s-28.4,12.74-28.4,28.4
	v16.842H213.562V28.4c0-15.66-12.74-28.4-28.4-28.4s-28.4,12.74-28.4,28.4v16.842h-13.08c-25.213,0-45.725,20.512-45.725,45.725
	v83.998c0,0.052,0.007,0.102,0.008,0.154c0.002,0.113,0.01,0.225,0.017,0.338c0.01,0.155,0.023,0.31,0.042,0.462
	c0.006,0.046,0.006,0.092,0.013,0.138c0.133,0.902,12.871,91.084-19.52,169.983c-1.573,3.832,0.258,8.213,4.09,9.786
	c3.834,1.574,8.214-0.258,9.786-4.09c28.389-69.152,24.042-144.176,21.507-169.272h353.427c1.414,13.448,3.832,46.479-0.886,85.854
	c-5.051,42.151-17.401,84.561-42.144,119.541c-9.283,13.123-20.459,25.141-32.983,35.228c-10.681,8.602-24.256,13.339-38.224,13.339
	c0,0-298.245,0-298.248,0c-8.154-0.002-12.577-10.128-6.811-15.984c10.855-11.028,20.593-23.716,28.942-37.711
	c2.122-3.557,0.959-8.161-2.598-10.283c-3.557-2.121-8.161-0.959-10.283,2.599c-7.735,12.965-16.734,24.698-26.749,34.872
	c-14.947,15.184-3.612,41.508,17.503,41.508h58.584v13.855c0,25.76,20.958,46.718,46.718,46.718h274.609
	c25.76,0,46.718-20.958,46.718-46.718L481.475,90.967L481.475,90.967z M380.869,28.4c0-7.389,6.011-13.4,13.4-13.4
	s13.4,6.011,13.4,13.4v48.684c0,7.389-6.011,13.4-13.4,13.4s-13.4-6.011-13.4-13.4V28.4z M185.162,15c7.389,0,13.4,6.011,13.4,13.4
	v48.684c0,7.292-6.105,13.4-13.4,13.4c-7.304,0-13.4-6.105-13.4-13.4V28.4C171.761,21.011,177.773,15,185.162,15z M112.957,167.465
	V90.967c0-16.941,13.783-30.725,30.725-30.725h13.08v16.842c0,15.416,13.007,28.4,28.4,28.4c15.347,0,28.4-13.057,28.4-28.4V60.243
	h152.307v16.842c0,15.66,12.74,28.4,28.4,28.4s28.4-12.74,28.4-28.4V60.243h13.08c16.941,0,30.725,13.783,30.725,30.725v76.498
	H112.957V167.465z M466.475,465.282c0,17.489-14.229,31.718-31.718,31.718H160.148c-17.489,0-31.718-14.229-31.718-31.718v-13.855
	h224.661c17.178,0,34.238-5.869,47.632-16.656c13.19-10.623,24.841-23.107,34.753-36.83c13.302-18.415,23.435-39.036,30.825-60.484
	c0.057-0.165,0.117-0.327,0.174-0.492V465.282z"/>
<g>
</g>
<g>
</g>
<g>
</g>
<g>
</g>
<g>
</g>
<g>
</g>
<g>
</g>
<g>
</g>
<g>
</g>
<g>
</g>
<g>
</g>
<g>
</g>
<g>
</g>
<g>
</g>
<g>
</g>
</svg>
