<?xml version="1.0" encoding="utf-8"?>
<!-- Generator: Adobe Illustrator 22.1.0, SVG Export Plug-In . SVG Version: 6.00 Build 0)  -->
<svg version="1.1" id="Layer_1" xmlns="http://www.w3.org/2000/svg" xmlns:xlink="http://www.w3.org/1999/xlink" x="0px" y="0px"
	 viewBox="0 0 74.2 94.3" style="enable-background:new 0 0 74.2 94.3;" xml:space="preserve">
<style type="text/css">
	.st0{fill:#F3705A;}
	.st1{fill:#FFD15C;}
</style>
<path class="st0" d="M16.8,86.1c-4.1-4.7-8.3-9.6-10.9-15.4c-2.6-6.2-3.4-13.4-2.1-20.2s4.3-13.2,8.7-18.6
	c-0.4,4.7,1.3,9.6,4.5,13.2c-1.9-9,1.1-18.8,7.2-26S38.4,7.2,47.1,4c-4.3,4.5-4.9,11.7-3.2,17.7c1.7,6,5.3,11.3,8.5,16.8
	c3.2,5.5,6.2,11.1,6.4,17.3c1.7-3.2,3.6-6.4,4.7-10c1.1-3.6,1.7-7.3,0.8-10.9c3.4,4.1,5.3,8.3,6.2,13.6c0.9,5.3,0.8,10.7,0.2,16
	c-0.8,5.8-2.3,11.9-5.5,16.8c-3.8,5.8-9.8,10-16.4,12.2C37.1,95.5,25.6,93.8,16.8,86.1z"/>
<path class="st1" d="M31.1,93.1c15.4,6,30.7-12.2,22.2-26.4c0-0.2-0.2-0.2-0.2-0.4c0.8,7.7-1.1,13.4-4.7,16.6
	c1.9-4.5,0.6-9.8-1.7-14.3c-2.3-4.3-5.5-8.3-7.9-12.4c-2.4-4.3-4.3-9.2-3.2-14.1c-4.5,3.4-7.7,8.5-9,13.9S26,67.5,28.4,72.6
	c-2.8-2.1-4.9-5.5-5.1-9c-3,3.6-4.9,8.3-4.7,13C18.7,83.9,24.5,90.4,31.1,93.1z"/>
</svg>
