<?xml version="1.0" encoding="utf-8"?>
<!-- Generator: Adobe Illustrator 22.1.0, SVG Export Plug-In . SVG Version: 6.00 Build 0)  -->
<svg version="1.1" id="Capa_1" xmlns="http://www.w3.org/2000/svg" xmlns:xlink="http://www.w3.org/1999/xlink" x="0px" y="0px"
	 viewBox="0 0 79.8 90" style="enable-background:new 0 0 79.8 90;" xml:space="preserve">
<style type="text/css">
	.st0{fill:#D0E8F9;}
	.st1{fill:#0096E6;}
	.st2{fill:#FFFFFF;}
	.st3{fill:#E4ECF4;}
	.st4{fill:#CAD1D8;}
</style>
<path class="st0" d="M50.3,58.2V10.5c0-5-4-9-9-9l0,0c-5,0-9,4-9,9v47.7c-5,3.3-8.1,9.2-7.4,15.8c0.9,7.5,7,13.6,14.5,14.4
	c10,1.1,18.4-6.7,18.4-16.4C57.8,66.2,54.8,61.1,50.3,58.2z"/>
<path class="st1" d="M42.8,64.7v-9.2c0-0.8-0.7-1.5-1.5-1.5c-0.8,0-1.5,0.7-1.5,1.5v9.2c-3.4,0.7-6,3.7-6,7.3c0,4.1,3.4,7.5,7.5,7.5
	s7.5-3.4,7.5-7.5C48.8,68.4,46.3,65.3,42.8,64.7z"/>
<g>
	<path class="st2" d="M35.3,9h-3c-0.8,0-1.5,0.7-1.5,1.5s0.7,1.5,1.5,1.5h3c0.8,0,1.5-0.7,1.5-1.5S36.2,9,35.3,9z"/>
	<path class="st2" d="M35.3,16.5h-3c-0.8,0-1.5,0.7-1.5,1.5s0.7,1.5,1.5,1.5h3c0.8,0,1.5-0.7,1.5-1.5S36.2,16.5,35.3,16.5z"/>
	<path class="st2" d="M35.3,24h-3c-0.8,0-1.5,0.7-1.5,1.5s0.7,1.5,1.5,1.5h3c0.8,0,1.5-0.7,1.5-1.5S36.2,24,35.3,24z"/>
	<path class="st2" d="M35.3,31.5h-3c-0.8,0-1.5,0.7-1.5,1.5s0.7,1.5,1.5,1.5h3c0.8,0,1.5-0.7,1.5-1.5S36.2,31.5,35.3,31.5z"/>
	<path class="st2" d="M35.3,39h-3c-0.8,0-1.5,0.7-1.5,1.5s0.7,1.5,1.5,1.5h3c0.8,0,1.5-0.7,1.5-1.5S36.2,39,35.3,39z"/>
	<path class="st2" d="M35.3,46.5h-3c-0.8,0-1.5,0.7-1.5,1.5c0,0.8,0.7,1.5,1.5,1.5h3c0.8,0,1.5-0.7,1.5-1.5S36.2,46.5,35.3,46.5z"/>
	<path class="st2" d="M35.3,54h-3c-0.8,0-1.5,0.7-1.5,1.5s0.7,1.5,1.5,1.5h3c0.8,0,1.5-0.7,1.5-1.5S36.2,54,35.3,54z"/>
	<path class="st2" d="M47.3,15h3c0.8,0,1.5-0.7,1.5-1.5S51.2,12,50.3,12h-3c-0.8,0-1.5,0.7-1.5,1.5S46.5,15,47.3,15z"/>
	<path class="st2" d="M50.3,19.5h-3c-0.8,0-1.5,0.7-1.5,1.5s0.7,1.5,1.5,1.5h3c0.8,0,1.5-0.7,1.5-1.5S51.2,19.5,50.3,19.5z"/>
	<path class="st2" d="M50.3,27h-3c-0.8,0-1.5,0.7-1.5,1.5s0.7,1.5,1.5,1.5h3c0.8,0,1.5-0.7,1.5-1.5S51.2,27,50.3,27z"/>
	<path class="st2" d="M50.3,34.5h-3c-0.8,0-1.5,0.7-1.5,1.5s0.7,1.5,1.5,1.5h3c0.8,0,1.5-0.7,1.5-1.5S51.2,34.5,50.3,34.5z"/>
	<path class="st2" d="M50.3,42h-3c-0.8,0-1.5,0.7-1.5,1.5s0.7,1.5,1.5,1.5h3c0.8,0,1.5-0.7,1.5-1.5S51.2,42,50.3,42z"/>
	<path class="st2" d="M50.3,49.5h-3c-0.8,0-1.5,0.7-1.5,1.5s0.7,1.5,1.5,1.5h3c0.8,0,1.5-0.7,1.5-1.5S51.2,49.5,50.3,49.5z"/>
</g>
<path class="st3" d="M77.1,20.5L72.8,18l4.2-2.5c0.7-0.4,1-1.3,0.5-2c-0.4-0.7-1.3-1-2-0.5l-4.2,2.5v-4.9c0-0.8-0.7-1.5-1.5-1.5
	c-0.8,0-1.5,0.7-1.5,1.5v4.9L64.1,13c-0.7-0.4-1.6-0.2-2,0.5s-0.2,1.6,0.5,2l4.2,2.5l-4.2,2.5c-0.7,0.4-1,1.3-0.5,2
	c0.3,0.5,0.8,0.8,1.3,0.8c0.3,0,0.5-0.1,0.7-0.2l4.2-2.5v4.9c0,0.8,0.7,1.5,1.5,1.5c0.8,0,1.5-0.7,1.5-1.5v-4.9l4.2,2.5
	c0.2,0.1,0.5,0.2,0.7,0.2c0.5,0,1-0.3,1.3-0.8C78,21.8,77.8,20.9,77.1,20.5z"/>
<path class="st3" d="M17.1,61l-4.2-2.5l4.2-2.5c0.7-0.4,1-1.3,0.5-2c-0.4-0.7-1.3-1-2-0.5l-4.2,2.5V51c0-0.8-0.7-1.5-1.5-1.5
	c-0.8,0-1.5,0.7-1.5,1.5v4.9l-4.2-2.5C3.4,53,2.5,53.3,2,54s-0.2,1.6,0.5,2l4.2,2.5L2.6,61c-0.7,0.4-1,1.3-0.5,2
	c0.3,0.5,0.8,0.8,1.3,0.8c0.3,0,0.5-0.1,0.7-0.2l4.2-2.5V66c0,0.8,0.7,1.5,1.5,1.5c0.8,0,1.5-0.7,1.5-1.5v-4.9l4.2,2.5
	c0.2,0.1,0.5,0.2,0.7,0.2c0.5,0,1-0.3,1.3-0.8C18,62.3,17.8,61.4,17.1,61z"/>
<path class="st4" d="M41.3,90L41.3,90c-0.7,0-1.4,0-2.1-0.1c-8.2-0.9-14.9-7.5-15.8-15.8c-0.8-6.6,2.1-12.9,7.4-16.7V10.5
	C30.8,4.7,35.5,0,41.3,0s10.5,4.7,10.5,10.5v46.9c4.7,3.4,7.5,8.8,7.5,14.6c0,4.8-1.9,9.3-5.3,12.7C50.7,88.1,46.1,90,41.3,90z
	 M41.3,3c-4.1,0-7.5,3.4-7.5,7.5V59l-0.7,0.4c-4.8,3.1-7.4,8.6-6.7,14.3c0.8,6.8,6.3,12.4,13.2,13.1c4.6,0.5,9.1-1.1,12.3-4.3
	c2.8-2.8,4.4-6.6,4.4-10.6c0-5.1-2.5-9.8-6.8-12.6L48.8,59V10.5C48.8,6.4,45.5,3,41.3,3z"/>
</svg>
