<?xml version="1.0" encoding="utf-8"?>
<!-- Generator: Adobe Illustrator 22.1.0, SVG Export Plug-In . SVG Version: 6.00 Build 0)  -->
<svg version="1.1" id="Capa_1" xmlns="http://www.w3.org/2000/svg" xmlns:xlink="http://www.w3.org/1999/xlink" x="0px" y="0px"
	 viewBox="0 0 73.7 91.7" style="enable-background:new 0 0 73.7 91.7;" xml:space="preserve">
<style type="text/css">
	.st0{fill:#FF8C78;}
	.st1{fill:#DB6B5E;}
	.st2{fill:#FFC44F;}
	.st3{fill:#F79F4D;}
	.st4{fill:#8E959F;}
	.st5{fill:#ECEDEF;}
</style>
<path class="st0" d="M61.4,31.1c-0.5-0.7-1.5-0.8-2.2-0.2l-6.4,6.3L38.1,2.4c-0.5-1.1-2-1.1-2.6-0.1L15.1,44.8l-7.5-3.2
	c-0.7-0.3-1.5,0-1.8,0.7C3,47.8,1.7,52.6,1.7,56.5c0,19.4,15.8,35.2,35.2,35.2S72,75.9,72,56.5C72,50.2,68.5,41.6,61.4,31.1z"/>
<path class="st1" d="M41.1,90.3c-19.4,0-35.2-15.8-35.2-35.2c0-3.5,1.1-7.8,3.4-12.8l-1.7-0.7c-0.7-0.3-1.5,0-1.8,0.7
	C3,47.8,1.7,52.6,1.7,56.5c0,19.4,15.8,35.2,35.2,35.2c4.7,0,9.1-0.9,13.2-2.6C47.2,89.9,44.2,90.3,41.1,90.3z"/>
<path class="st2" d="M38,26.1c-0.6-0.8-1.8-0.8-2.3,0c-0.8,1.2-20,29-20,40.2c0,11.6,9.5,21.1,21.1,21.1S58,78,58,66.3
	C58,55.1,38.8,27.3,38,26.1z"/>
<path class="st3" d="M39.7,86C28,86,18.6,76.6,18.6,64.9c0-10.1,15.5-33.6,19.2-39.1c-0.6-0.5-1.6-0.4-2,0.3c-0.8,1.2-20,29-20,40.2
	c0,11.6,9.5,21.1,21.1,21.1c3.9,0,7.6-1.1,10.8-3C45.2,85.5,42.5,86,39.7,86z"/>
<path class="st4" d="M36.9,52.3c-8.5,0-15.5,6.9-15.5,15.5s6.9,15.5,15.5,15.5s15.5-6.9,15.5-15.5S45.4,52.3,36.9,52.3z"/>
<path class="st5" d="M36.9,55.1c-7,0-12.7,5.7-12.7,12.7s5.7,12.7,12.7,12.7s12.7-5.7,12.7-12.7S43.8,55.1,36.9,55.1z"/>
<g>
	<path class="st4" d="M36.9,52.3c-0.5,0-0.9,0-1.4,0.1v5.6c0,0.8,0.6,1.4,1.4,1.4c0.8,0,1.4-0.6,1.4-1.4v-5.6
		C37.8,52.3,37.3,52.3,36.9,52.3z"/>
	<path class="st4" d="M21.4,67.7c0,0.5,0,0.9,0.1,1.4H27c0.8,0,1.4-0.6,1.4-1.4c0-0.8-0.6-1.4-1.4-1.4h-5.6
		C21.4,66.8,21.4,67.3,21.4,67.7z"/>
	<path class="st4" d="M36.9,83.2c0.5,0,0.9,0,1.4-0.1v-5.6c0-0.8-0.6-1.4-1.4-1.4c-0.8,0-1.4,0.6-1.4,1.4v5.6
		C35.9,83.2,36.4,83.2,36.9,83.2z"/>
	<path class="st4" d="M52.3,67.7c0-0.5,0-0.9-0.1-1.4h-5.6c-0.8,0-1.4,0.6-1.4,1.4c0,0.8,0.6,1.4,1.4,1.4h5.6
		C52.3,68.7,52.3,68.2,52.3,67.7z"/>
</g>
<path class="st1" d="M36.9,70.6c-0.3,0-0.5-0.1-0.8-0.2l-4.2-2.8c-0.6-0.4-0.8-1.3-0.4-2c0.4-0.6,1.3-0.8,2-0.4l3.1,2.1l3.4-4.6
	c0.5-0.6,1.3-0.7,2-0.3c0.6,0.5,0.7,1.3,0.3,2L38,70C37.7,70.4,37.3,70.6,36.9,70.6z"/>
</svg>
