<?xml version="1.0" encoding="utf-8"?>
<!-- Generator: Adobe Illustrator 22.1.0, SVG Export Plug-In . SVG Version: 6.00 Build 0)  -->
<svg version="1.1" id="Capa_1" xmlns="http://www.w3.org/2000/svg" xmlns:xlink="http://www.w3.org/1999/xlink" x="0px" y="0px"
	 viewBox="0 0 67.5 90" style="enable-background:new 0 0 67.5 90;" xml:space="preserve">
<style type="text/css">
	.st0{fill:#94C1FF;}
	.st1{fill:#5C9EFF;}
	.st2{fill:#D7E9FF;}
	.st3{fill:#FFFFFF;}
	.st4{fill:#116FFF;}
</style>
<path class="st0" d="M52.1,74.6L52.1,74.6c1.7-1.7,3-3.5,4.1-5.4c1.2-2,2-4.1,2.6-6.3c0.6-2.2,0.9-4.5,0.9-6.7s-0.3-4.5-0.9-6.7
	c-0.6-2.2-1.4-4.3-2.6-6.3c-1.1-1.9-2.5-3.7-4.1-5.4c-1.6-1.6-3.5-3-5.4-4.1c-2-1.2-4.1-2-6.3-2.6c-2.2-0.6-4.5-0.9-6.7-0.9
	c-2.3,0-4.5,0.3-6.7,0.9c-2.2,0.6-4.3,1.4-6.3,2.6c-1.9,1.1-3.7,2.5-5.4,4.1c-1.6,1.6-3,3.5-4.1,5.4c-1.2,2-2,4.1-2.6,6.3
	C8,51.7,7.7,54,7.7,56.2c0,2.3,0.3,4.5,0.9,6.7c1.1,4.3,3.4,8.3,6.7,11.7c1.6,1.6,3.5,3,5.4,4.1c2,1.2,4.1,2,6.3,2.6
	c2.2,0.6,4.5,0.9,6.7,0.9c2.3,0,4.5-0.3,6.7-0.9c2.2-0.6,4.3-1.4,6.3-2.6C48.7,77.7,50.5,76.3,52.1,74.6z M48.5,14.8
	c0,0,18.3,18.1,18.3,41.5c0,18.3-14.8,33-33,33s-33-14.8-33-33C0.7,20,35.9,0.7,35.9,0.7s-3.5,10.6,1.4,15.5
	C42.1,21.1,48.5,14.8,48.5,14.8z"/>
<path class="st1" d="M48.5,14.8c0,0-0.6,0.6-1.6,1.3C51,20.6,64,36.5,64,56.2c0,17.8-14,32.3-31.6,33c0.5,0,0.9,0,1.4,0
	c18.3,0,33-14.8,33-33C66.8,32.9,48.5,14.8,48.5,14.8z"/>
<g>
	<path class="st2" d="M3.5,56.2c0-29.3,23-47.6,31.8-53.4c0.3-1.3,0.5-2.1,0.5-2.1S0.7,20,0.7,56.2c0,18.3,14.8,33,33,33
		c0.5,0,0.9,0,1.4,0C17.5,88.5,3.5,74,3.5,56.2z"/>
	<path class="st2" d="M28.8,16.3c0,0-9.5,3.8-12.4,20.5l23.8-5.9C28.3,26.6,28.8,16.3,28.8,16.3z"/>
</g>
<path class="st0" d="M35.2,54.8c0.8,0.8,0.8,2.2,0,3c-0.4,0.4-0.9,0.6-1.5,0.6c-0.5,0-1.1-0.2-1.5-0.6c-0.8-0.8-0.8-2.2,0-3
	C33.1,53.9,34.4,53.9,35.2,54.8z"/>
<path class="st3" d="M35.2,54.8c-0.8-0.8-2.2-0.8-3,0c-0.8,0.8-0.8,2.2,0,3c0.4,0.4,1,0.6,1.5,0.6c0.5,0,1.1-0.2,1.5-0.6
	C36.1,56.9,36.1,55.6,35.2,54.8z M50.2,39.8c9.1,9.1,9.1,23.8,0,32.8c-9.1,9.1-23.8,9.1-32.8,0c-9.1-9.1-9.1-23.8,0-32.8
	C26.4,30.8,41.1,30.8,50.2,39.8z"/>
<path class="st1" d="M56.3,43.2c1.2,2,2,4.1,2.6,6.3c0.6,2.2,0.9,4.5,0.9,6.7s-0.3,4.5-0.9,6.7c-0.6,2.2-1.4,4.3-2.6,6.3
	c-1.1,1.9-2.5,3.7-4.1,5.4v0c-1.6,1.6-3.5,3-5.4,4.1c-2,1.2-4.1,2-6.3,2.6c-2.2,0.6-4.5,0.9-6.7,0.9c-2.3,0-4.5-0.3-6.7-0.9
	c-2.2-0.6-4.3-1.4-6.3-2.6c-1.9-1.1-3.7-2.5-5.4-4.1C12,71.3,9.7,67.2,8.6,63c-0.6-2.2-0.9-4.5-0.9-6.7c0-2.3,0.3-4.5,0.9-6.7
	c0.6-2.2,1.4-4.3,2.6-6.3c1.1-1.9,2.5-3.7,4.1-5.4c1.6-1.6,3.5-3,5.4-4.1c2-1.2,4.1-2,6.3-2.6c2.2-0.6,4.5-0.9,6.7-0.9
	c2.3,0,4.5,0.3,6.7,0.9c2.2,0.6,4.3,1.4,6.3,2.6c1.9,1.1,3.7,2.5,5.4,4.1C53.8,39.5,55.2,41.3,56.3,43.2z M50.2,72.7
	c9.1-9.1,9.1-23.8,0-32.8c-9.1-9.1-23.8-9.1-32.8,0c-9.1,9.1-9.1,23.8,0,32.8C26.4,81.7,41.1,81.7,50.2,72.7z"/>
<g>
	<path class="st4" d="M33.8,90c-0.4,0-0.7-0.3-0.7-0.7c0-0.4,0.3-0.7,0.7-0.7c17.8,0,32.3-14.5,32.3-32.3c0-0.4,0.3-0.7,0.7-0.7
		c0.4,0,0.7,0.3,0.7,0.7C67.5,74.9,52.4,90,33.8,90z"/>
	<path class="st4" d="M33.8,90C15.1,90,0,74.9,0,56.2c0-0.4,0.3-0.7,0.7-0.7c0.4,0,0.7,0.3,0.7,0.7c0,17.8,14.5,32.3,32.3,32.3
		c0.4,0,0.7,0.3,0.7,0.7C34.5,89.7,34.1,90,33.8,90z"/>
	<path class="st4" d="M66.8,57c-0.4,0-0.7-0.3-0.7-0.7c0-20.7-14.8-37.5-17.6-40.5c-2.6,2.3-7.8,4.9-11.7,0.9
		c-3.9-4-2.8-11.2-2-14.5c-6.6,4.2-33.3,22.9-33.3,54c0,0.4-0.3,0.7-0.7,0.7C0.3,57,0,56.6,0,56.2C0,20,35.2,0.3,35.5,0.1
		c0.3-0.1,0.6-0.1,0.8,0.1c0.2,0.2,0.3,0.5,0.2,0.8c0,0.1-3.3,10.2,1.2,14.8c4.4,4.3,10-1.2,10.3-1.4c0.3-0.3,0.7-0.3,1,0
		c0.2,0.2,18.5,18.6,18.5,42C67.5,56.6,67.2,57,66.8,57z"/>
	<path class="st4" d="M17.6,33.7c-0.1,0-0.1,0-0.2,0c-0.4-0.1-0.6-0.5-0.5-0.9c3.5-11.7,11.2-17,11.5-17.3c0.2-0.1,0.5-0.2,0.7-0.1
		c0.2,0.1,0.4,0.3,0.4,0.5c0,0.1,1.2,7.1,5.4,10.8c0.3,0.3,0.3,0.7,0.1,1c-0.3,0.3-0.7,0.3-1,0.1c-3.6-3.2-5.1-8.3-5.6-10.5
		c-2.1,1.7-7.4,6.9-10.1,15.8C18.2,33.6,17.9,33.7,17.6,33.7z"/>
	<path class="st4" d="M33.8,83c-2.3,0-4.7-0.3-6.9-0.9c-2.3-0.6-4.4-1.5-6.4-2.7c-2-1.2-3.9-2.6-5.5-4.2c-3.3-3.3-5.7-7.5-6.9-12
		C7.3,60.9,7,58.6,7,56.2c0-2.3,0.3-4.7,0.9-6.9c0.6-2.3,1.5-4.4,2.7-6.4c1.2-2,2.6-3.9,4.2-5.5c1.7-1.7,3.5-3.1,5.5-4.2
		c2-1.2,4.1-2.1,6.4-2.7c4.5-1.2,9.3-1.2,13.8,0c2.3,0.6,4.5,1.5,6.4,2.7c2,1.1,3.9,2.6,5.5,4.3c1.7,1.7,3.1,3.5,4.2,5.5
		c1.2,2,2.1,4.2,2.7,6.5c0.6,2.3,0.9,4.6,0.9,6.9c0,2.3-0.3,4.7-0.9,6.9c-0.6,2.3-1.5,4.4-2.7,6.5c-1.1,2-2.6,3.8-4.2,5.4
		c0,0,0,0.1-0.1,0.1c-1.7,1.7-3.5,3.1-5.5,4.2c-2,1.2-4.2,2.1-6.4,2.7C38.4,82.7,36.1,83,33.8,83z M33.8,30.9
		c-2.2,0-4.4,0.3-6.6,0.9c-2.2,0.6-4.2,1.4-6.1,2.5c-1.9,1.1-3.7,2.5-5.2,4c-1.6,1.6-2.9,3.3-4,5.2c-1.1,1.9-2,4-2.5,6.1
		c-0.6,2.1-0.9,4.3-0.9,6.5c0,2.2,0.3,4.4,0.9,6.6c1.1,4.3,3.4,8.2,6.6,11.4c1.6,1.6,3.3,2.9,5.2,4c1.9,1.1,4,2,6.1,2.5
		c4.3,1.1,8.8,1.1,13.1,0c2.1-0.6,4.2-1.4,6.1-2.5c1.9-1.1,3.6-2.4,5.2-3.9c0,0,0-0.1,0.1-0.1c1.6-1.5,2.9-3.3,4-5.2
		c1.1-1.9,2-4,2.5-6.1c0.6-2.1,0.9-4.3,0.9-6.5c0-2.2-0.3-4.4-0.9-6.6c-0.6-2.1-1.4-4.2-2.5-6.1c-1.1-1.9-2.4-3.6-4-5.2
		c-1.6-1.6-3.4-2.9-5.2-4c-1.9-1.1-3.9-1.9-6.1-2.5C38.2,31.2,36,30.9,33.8,30.9z"/>
	<path class="st4" d="M33.8,80.2c-6.4,0-12.4-2.5-16.9-7c-4.5-4.5-7-10.5-7-16.9c0-6.4,2.5-12.4,7-16.9c4.5-4.5,10.5-7,16.9-7
		c6.4,0,12.4,2.5,16.9,7c9.3,9.3,9.3,24.5,0,33.8C46.1,77.7,40.1,80.2,33.8,80.2z M33.8,33.7c-6,0-11.7,2.3-15.9,6.6
		c-4.2,4.2-6.6,9.9-6.6,15.9c0,6,2.3,11.7,6.6,15.9c4.3,4.3,9.9,6.6,15.9,6.6c6,0,11.7-2.3,15.9-6.6c8.8-8.8,8.8-23.1,0-31.8
		C45.4,36.1,39.8,33.7,33.8,33.7z"/>
	<path class="st4" d="M33.8,59.1c-0.7,0-1.4-0.3-2-0.8c-0.5-0.5-0.8-1.3-0.8-2c0-0.7,0.3-1.4,0.8-2c1.1-1.1,2.9-1.1,4,0
		c0.5,0.5,0.8,1.2,0.8,2c0,0.8-0.3,1.5-0.8,2C35.2,58.8,34.5,59.1,33.8,59.1z M33.8,54.8c-0.4,0-0.7,0.1-1,0.4
		c-0.3,0.3-0.4,0.6-0.4,1c0,0.4,0.1,0.7,0.4,1c0.6,0.5,1.5,0.5,2,0c0.3-0.3,0.4-0.6,0.4-1c0-0.4-0.1-0.7-0.4-1
		C34.5,55,34.1,54.8,33.8,54.8z"/>
	<path class="st4" d="M35.2,55.5c-0.2,0-0.4-0.1-0.5-0.2c-0.3-0.3-0.3-0.7,0-1l9.9-9.9c0.3-0.3,0.7-0.3,1,0c0.3,0.3,0.3,0.7,0,1
		l-9.9,9.9C35.6,55.4,35.4,55.5,35.2,55.5z"/>
	<path class="st4" d="M33.8,67.9c-0.4,0-0.7-0.3-0.7-0.7v-8.8c0-0.4,0.3-0.7,0.7-0.7c0.4,0,0.7,0.3,0.7,0.7v8.8
		C34.5,67.6,34.1,67.9,33.8,67.9z"/>
	<path class="st4" d="M51.7,39.1c-0.2,0-0.4-0.1-0.5-0.2c-0.3-0.3-0.3-0.7,0-1l0.5-0.5c0.3-0.3,0.7-0.3,1,0c0.3,0.3,0.3,0.7,0,1
		l-0.5,0.5C52,39,51.8,39.1,51.7,39.1z"/>
	<path class="st4" d="M15.4,75.3c-0.2,0-0.4-0.1-0.5-0.2c-0.3-0.3-0.3-0.7,0-1l0.5-0.5c0.3-0.3,0.7-0.3,1,0c0.3,0.3,0.3,0.7,0,1
		l-0.5,0.5C15.7,75.3,15.5,75.3,15.4,75.3z"/>
	<path class="st4" d="M46.4,35c-0.1,0-0.2,0-0.3-0.1c-0.3-0.2-0.5-0.6-0.3-1l0.4-0.6c0.2-0.3,0.6-0.5,1-0.3c0.3,0.2,0.5,0.6,0.3,1
		L47,34.7C46.9,34.9,46.7,35,46.4,35z"/>
	<path class="st4" d="M20.7,79.5c-0.1,0-0.2,0-0.4-0.1c-0.3-0.2-0.4-0.6-0.3-1l0.4-0.6c0.2-0.3,0.6-0.5,1-0.3c0.3,0.2,0.4,0.6,0.3,1
		l-0.4,0.6C21.2,79.4,21,79.5,20.7,79.5z"/>
	<path class="st4" d="M40.3,32.5c-0.1,0-0.1,0-0.2,0c-0.4-0.1-0.6-0.5-0.5-0.9l0.2-0.7c0.1-0.4,0.5-0.6,0.9-0.5
		c0.4,0.1,0.6,0.5,0.5,0.9L41,32C40.9,32.3,40.6,32.5,40.3,32.5z"/>
	<path class="st4" d="M27,82.1c-0.1,0-0.1,0-0.2,0c-0.4-0.1-0.6-0.5-0.5-0.9l0.2-0.7c0.1-0.4,0.5-0.6,0.9-0.5
		c0.4,0.1,0.6,0.5,0.5,0.9l-0.2,0.7C27.6,81.9,27.3,82.1,27,82.1z"/>
	<path class="st4" d="M33.8,31.6c-0.4,0-0.7-0.3-0.7-0.7v-0.7c0-0.4,0.3-0.7,0.7-0.7c0.4,0,0.7,0.3,0.7,0.7v0.7
		C34.5,31.3,34.1,31.6,33.8,31.6z"/>
	<path class="st4" d="M33.8,83c-0.4,0-0.7-0.3-0.7-0.7v-0.7c0-0.4,0.3-0.7,0.7-0.7c0.4,0,0.7,0.3,0.7,0.7v0.7
		C34.5,82.7,34.1,83,33.8,83z"/>
	<path class="st4" d="M27.2,32.5c-0.3,0-0.6-0.2-0.7-0.5l-0.2-0.7c-0.1-0.4,0.1-0.8,0.5-0.9c0.4-0.1,0.8,0.1,0.9,0.5l0.2,0.7
		c0.1,0.4-0.1,0.8-0.5,0.9C27.3,32.5,27.3,32.5,27.2,32.5z"/>
	<path class="st4" d="M40.5,82.1c-0.3,0-0.6-0.2-0.7-0.5l-0.2-0.7c-0.1-0.4,0.1-0.8,0.5-0.9c0.4-0.1,0.8,0.1,0.9,0.5l0.2,0.7
		c0.1,0.4-0.1,0.8-0.5,0.9C40.6,82.1,40.5,82.1,40.5,82.1z"/>
	<path class="st4" d="M21.1,35c-0.2,0-0.5-0.1-0.6-0.3l-0.4-0.6c-0.2-0.3-0.1-0.8,0.3-1c0.3-0.2,0.8-0.1,1,0.3l0.4,0.6
		c0.2,0.3,0.1,0.8-0.3,1C21.3,35,21.2,35,21.1,35z"/>
	<path class="st4" d="M46.8,79.5c-0.2,0-0.5-0.1-0.6-0.4l-0.4-0.6c-0.2-0.3-0.1-0.8,0.3-1c0.3-0.2,0.8-0.1,1,0.3l0.4,0.6
		c0.2,0.3,0.1,0.8-0.3,1C47,79.5,46.9,79.5,46.8,79.5z"/>
	<path class="st4" d="M15.8,39.1c-0.2,0-0.4-0.1-0.5-0.2l-0.5-0.5c-0.3-0.3-0.3-0.7,0-1s0.7-0.3,1,0l0.5,0.5c0.3,0.3,0.3,0.7,0,1
		C16.2,39,16,39.1,15.8,39.1z"/>
	<path class="st4" d="M52.2,75.3L52.2,75.3c-0.2,0-0.5-0.1-0.6-0.3l-0.4-0.4c-0.3-0.3-0.3-0.7,0-1c0.3-0.3,0.7-0.3,1,0l0.5,0.5
		c0.1,0.1,0.1,0.1,0.2,0.2c0,0.1,0.1,0.2,0.1,0.3C52.9,75,52.5,75.3,52.2,75.3z"/>
	<path class="st4" d="M11.8,44.3c-0.1,0-0.2,0-0.4-0.1l-0.6-0.4c-0.3-0.2-0.4-0.6-0.3-1c0.2-0.3,0.6-0.4,1-0.3l0.6,0.4
		c0.3,0.2,0.4,0.6,0.3,1C12.3,44.2,12.1,44.3,11.8,44.3z"/>
	<path class="st4" d="M56.3,70L56.3,70c-0.1,0-0.3,0-0.4-0.1l-0.6-0.4c-0.3-0.2-0.4-0.6-0.3-1c0.2-0.3,0.6-0.5,1-0.3l0.6,0.3
		c0.2,0.1,0.4,0.4,0.4,0.6C57,69.6,56.7,70,56.3,70z"/>
	<path class="st4" d="M9.3,50.4c-0.1,0-0.1,0-0.2,0l-0.7-0.2c-0.4-0.1-0.6-0.5-0.5-0.9C8,49,8.4,48.7,8.8,48.8L9.5,49
		c0.4,0.1,0.6,0.5,0.5,0.9C9.9,50.2,9.6,50.4,9.3,50.4z"/>
	<path class="st4" d="M58.9,63.7c-0.1,0-0.1,0-0.2,0L58,63.5c-0.4-0.1-0.6-0.5-0.5-0.9c0.1-0.4,0.5-0.6,0.9-0.5l0.7,0.2
		c0.4,0.1,0.6,0.5,0.5,0.9C59.5,63.5,59.2,63.7,58.9,63.7z"/>
	<path class="st4" d="M8.4,57C8.4,57,8.4,57,8.4,57l-0.7,0c-0.4,0-0.7-0.3-0.7-0.7c0-0.4,0.3-0.7,0.7-0.7l0.7,0
		c0.4,0,0.7,0.3,0.7,0.7C9.1,56.6,8.8,57,8.4,57z"/>
	<path class="st4" d="M59.8,57h-0.7c-0.4,0-0.7-0.3-0.7-0.7c0-0.4,0.3-0.7,0.7-0.7h0.7c0.4,0,0.7,0.3,0.7,0.7
		C60.5,56.6,60.2,57,59.8,57z"/>
	<path class="st4" d="M8.6,63.7c-0.3,0-0.6-0.2-0.7-0.5c-0.1-0.4,0.1-0.8,0.5-0.9l0.7-0.2c0.4-0.1,0.8,0.1,0.9,0.5
		c0.1,0.4-0.1,0.8-0.5,0.8l-0.7,0.2C8.7,63.7,8.7,63.7,8.6,63.7z"/>
	<path class="st4" d="M58.2,50.4c-0.3,0-0.6-0.2-0.7-0.5c-0.1-0.4,0.1-0.8,0.5-0.9l0.7-0.2c0.4-0.1,0.8,0.1,0.9,0.5
		c0.1,0.4-0.1,0.8-0.5,0.9l-0.7,0.2C58.3,50.4,58.3,50.4,58.2,50.4z"/>
	<path class="st4" d="M11.2,69.9c-0.2,0-0.5-0.1-0.6-0.4c-0.2-0.3-0.1-0.8,0.3-1l0.6-0.3c0.3-0.2,0.8-0.1,1,0.3
		c0.2,0.3,0.1,0.8-0.3,1l-0.6,0.3C11.5,69.9,11.3,69.9,11.2,69.9z"/>
	<path class="st4" d="M55.7,44.3c-0.2,0-0.5-0.1-0.6-0.3c-0.2-0.3-0.1-0.8,0.3-1l0.6-0.4c0.4-0.3,1.1,0.1,1.1,0.6
		c0,0.3-0.2,0.5-0.4,0.7L56,44.2C55.9,44.3,55.8,44.3,55.7,44.3z"/>
	<path class="st4" d="M48.2,42.5c-0.4,0-0.7-0.3-0.7-0.7c0-0.4,0.3-0.7,0.7-0.7h0c0.4,0,0.7,0.3,0.7,0.7S48.6,42.5,48.2,42.5z"/>
	<path class="st4" d="M19.4,71.4c-0.4,0-0.7-0.3-0.7-0.7c0-0.4,0.3-0.7,0.7-0.7h0c0.4,0,0.7,0.3,0.7,0.7
		C20.1,71.1,19.8,71.4,19.4,71.4z"/>
	<path class="st4" d="M39.1,37.3c-0.4,0-0.7-0.3-0.7-0.7c0-0.4,0.3-0.7,0.7-0.7h0c0.4,0,0.7,0.3,0.7,0.7
		C39.8,36.9,39.5,37.3,39.1,37.3z"/>
	<path class="st4" d="M28.5,76.6c-0.4,0-0.7-0.3-0.7-0.7c0-0.4,0.3-0.7,0.7-0.7h0c0.4,0,0.7,0.3,0.7,0.7
		C29.2,76.3,28.9,76.6,28.5,76.6z"/>
	<path class="st4" d="M28.5,37.3c-0.4,0-0.7-0.3-0.7-0.7c0-0.4,0.3-0.7,0.7-0.7h0c0.4,0,0.7,0.3,0.7,0.7
		C29.2,36.9,28.9,37.3,28.5,37.3z"/>
	<path class="st4" d="M39.1,76.6c-0.4,0-0.7-0.3-0.7-0.7c0-0.4,0.3-0.7,0.7-0.7h0c0.4,0,0.7,0.3,0.7,0.7
		C39.8,76.3,39.5,76.6,39.1,76.6z"/>
	<path class="st4" d="M19.4,42.5c-0.4,0-0.7-0.3-0.7-0.7c0-0.4,0.3-0.7,0.7-0.7h0c0.4,0,0.7,0.3,0.7,0.7
		C20.1,42.2,19.8,42.5,19.4,42.5z"/>
	<path class="st4" d="M48.2,71.4c-0.4,0-0.7-0.3-0.7-0.7s0.3-0.7,0.7-0.7h0c0.4,0,0.7,0.3,0.7,0.7S48.6,71.4,48.2,71.4z"/>
	<path class="st4" d="M14.1,51.7c-0.4,0-0.7-0.3-0.7-0.7c0-0.4,0.3-0.7,0.7-0.7h0c0.4,0,0.7,0.3,0.7,0.7
		C14.8,51.4,14.5,51.7,14.1,51.7z"/>
	<path class="st4" d="M53.5,62.2c-0.4,0-0.7-0.3-0.7-0.7c0-0.4,0.3-0.7,0.7-0.7h0c0.4,0,0.7,0.3,0.7,0.7
		C54.2,61.9,53.9,62.2,53.5,62.2z"/>
	<path class="st4" d="M14.1,62.2c-0.4,0-0.7-0.3-0.7-0.7c0-0.4,0.3-0.7,0.7-0.7h0c0.4,0,0.7,0.3,0.7,0.7
		C14.8,61.9,14.5,62.2,14.1,62.2z"/>
	<path class="st4" d="M53.5,51.7c-0.4,0-0.7-0.3-0.7-0.7c0-0.4,0.3-0.7,0.7-0.7h0c0.4,0,0.7,0.3,0.7,0.7
		C54.2,51.4,53.9,51.7,53.5,51.7z"/>
</g>
</svg>
